<svg width="957" height="158" viewBox="0 0 957 158" fill="none" xmlns="http://www.w3.org/2000/svg">
<path d="M333.5 152.8C332.9 153.1 331.9 153.6 330.6 154.1C329.3 154.7 327.8 155.2 326.1 155.7C324.4 156.2 322.5 156.7 320.4 157C318.4 157.3 316.3 157.5 314.2 157.5C310.7 157.5 307.5 157.1 304.8 156.4C302 155.6 299.7 154.4 297.8 152.8C295.9 151.1 294.4 148.9 293.4 146.2C292.4 143.5 291.9 140.1 291.9 136.2C291.9 134.5 292 132.4 292.3 130.1C292.5 127.8 292.9 125 293.3 121.9C291.9 128.4 289.7 133.9 286.6 138.4C283.5 142.9 279.8 146.6 275.6 149.4C271.3 152.2 266.6 154.3 261.3 155.6C256.1 156.9 250.7 157.5 245.1 157.5C238.9 157.5 233.5 156.8 228.7 155.3C223.9 153.8 219.8 151.8 216.6 149.1C213.3 146.4 210.8 143.2 209.1 139.4C207.4 135.6 206.5 131.4 206.5 126.7C206.5 122.1 207.5 118 209.4 114.6C211.3 111.2 214.1 108.2 217.6 105.8C221.1 103.3 225.3 101.3 230.3 99.7998C235.2 98.1998 240.7 96.9998 246.6 96.1998C252.6 95.2998 259 94.6998 265.8 94.3998C272.6 94.0998 279.7 93.8998 287.1 93.8998V86.5998C287.1 83.4998 286.7 80.5998 285.8 77.9998C284.9 75.3998 283.6 73.1998 281.7 71.2998C279.8 69.3998 277.3 67.9998 274.3 66.8998C271.3 65.8998 267.6 65.2998 263.2 65.2998C260.2 65.2998 257.4 65.5998 254.6 66.2998C251.8 66.9998 249.3 68.0998 247 69.5998C244.7 71.0998 242.8 72.9998 241.2 75.2998C239.6 77.5998 238.5 80.2998 237.9 83.4998L212.9 78.9998C214.1 73.7998 216.1 69.0998 218.9 64.7998C221.7 60.4998 225.2 56.8998 229.6 53.8998C234 50.8998 239.2 48.4998 245.3 46.7998C251.4 45.0998 258.3 44.2998 266.2 44.2998C284 44.2998 297.3 48.1998 305.8 55.9998C314.4 63.7998 318.7 75.7998 318.7 91.9998V129.2C318.7 132.5 319.2 134.9 320.2 136.4C321.2 138 322.9 138.7 325.3 138.7C327 138.7 328.5 138.5 330 138.1C331.5 137.7 332.6 137.4 333.4 137V152.8H333.5ZM287.1 107.8C280.1 108 273.7 108.4 267.8 108.9C261.9 109.4 256.8 110.3 252.5 111.5C248.2 112.7 244.8 114.5 242.4 116.7C240 118.9 238.8 121.8 238.8 125.4C238.8 127.2 239.1 128.9 239.7 130.4C240.3 132 241.3 133.3 242.7 134.5C244 135.7 245.8 136.6 248 137.3C250.2 138 252.9 138.3 256 138.3C260.2 138.3 264.2 137.5 268 135.8C271.8 134.1 275.1 131.9 277.9 129.2C280.7 126.5 282.9 123.3 284.6 119.8C286.3 116.2 287.1 112.6 287.1 108.9V107.8V107.8Z" fill="black"/>
<path d="M432 116.9L454.9 126.5C453.2 130.8 450.9 134.8 447.8 138.6C444.8 142.4 441.1 145.7 436.7 148.5C432.3 151.3 427.3 153.5 421.7 155.1C416 156.7 409.7 157.5 402.8 157.5C393.9 157.5 385.7 156.2 378.3 153.7C370.9 151.2 364.6 147.5 359.3 142.7C354 137.9 349.9 131.9 347 125C344.1 118 342.6 110.1 342.6 101.1C342.6 92.1004 344 84.1004 346.8 77.0004C349.6 69.9004 353.6 64.0004 358.7 59.2004C363.8 54.4004 370 50.7004 377.2 48.2004C384.4 45.7004 392.5 44.4004 401.3 44.4004C408.4 44.4004 415.1 45.4004 421.3 47.5004C427.5 49.5004 433 52.4004 437.7 56.2004C442.4 60.0004 446.3 64.6004 449.2 70.0004C452.1 75.5004 453.9 81.6004 454.4 88.5004L429.1 93.9004L428 93.5004C427.2 85.2004 424.6 78.8004 420.3 74.2004C416 69.6004 409.9 67.4004 402.2 67.4004C398.1 67.4004 394.3 68.2004 391 69.7004C387.7 71.2004 384.9 73.4004 382.5 76.3004C380.2 79.2004 378.4 82.7004 377.2 86.8004C376 90.9004 375.3 95.7004 375.3 100.9C375.3 106.7 376 111.7 377.3 116C378.6 120.3 380.6 123.8 383.1 126.5C385.6 129.3 388.6 131.3 392.2 132.7C395.8 134 399.8 134.7 404.3 134.7C410.7 134.7 416.3 133.1 420.9 130C425.5 126.9 428.9 122.5 431.1 117.1L432 116.9Z" fill="black"/>
<path d="M554.4 116.9L577.3 126.5C575.6 130.8 573.3 134.8 570.2 138.6C567.2 142.4 563.5 145.7 559.1 148.5C554.7 151.3 549.7 153.5 544.1 155.1C538.4 156.7 532.1 157.5 525.2 157.5C516.3 157.5 508.1 156.2 500.7 153.7C493.3 151.2 487 147.5 481.7 142.7C476.4 137.9 472.3 131.9 469.4 125C466.5 118 465 110.1 465 101.1C465 92.1004 466.4 84.1004 469.2 77.0004C472 69.9004 476 64.0004 481.1 59.2004C486.2 54.4004 492.4 50.7004 499.6 48.2004C506.8 45.7004 514.9 44.4004 523.7 44.4004C530.8 44.4004 537.5 45.4004 543.7 47.5004C549.9 49.5004 555.4 52.4004 560.1 56.2004C564.8 60.0004 568.7 64.6004 571.6 70.0004C574.5 75.5004 576.3 81.6004 576.8 88.5004L551.5 93.9004L550.4 93.5004C549.6 85.2004 547 78.8004 542.7 74.2004C538.4 69.6004 532.3 67.4004 524.6 67.4004C520.5 67.4004 516.7 68.2004 513.4 69.7004C510.1 71.2004 507.3 73.4004 504.9 76.3004C502.6 79.2004 500.8 82.7004 499.6 86.8004C498.4 90.9004 497.7 95.7004 497.7 100.9C497.7 106.7 498.4 111.7 499.7 116C501 120.3 503 123.8 505.5 126.5C508 129.3 511 131.3 514.6 132.7C518.2 134 522.2 134.7 526.7 134.7C533.1 134.7 538.7 133.1 543.3 130C547.9 126.9 551.3 122.5 553.5 117.1L554.4 116.9Z" fill="black"/>
<path d="M597.5 154.2V47.8004H620.1L626.3 73.4004C627.4 69.4004 629.2 65.6004 631.6 62.1004C634 58.6004 636.9 55.5004 640.3 52.9004C643.7 50.3004 647.4 48.2004 651.4 46.7004C655.4 45.2004 659.7 44.4004 664.1 44.4004C670.3 44.4004 675.6 45.2004 680.1 46.8004C684.5 48.4004 688.2 50.6004 691.1 53.3004C694 56.0004 696.3 59.2004 697.9 62.8004C699.5 66.4004 700.6 70.3004 701.3 74.3004C702 78.3004 702.2 82.5004 702 86.9004C701.8 91.2004 701.3 95.4004 700.7 99.4004L675.8 101.9C676 97.1004 676 92.7004 675.7 88.5004C675.4 84.3004 674.7 80.8004 673.3 77.8004C672 74.8004 669.9 72.4004 667.2 70.7004C664.5 69.0004 660.7 68.1004 655.9 68.1004C651.3 68.1004 647.4 69.3004 644 71.6004C640.6 74.0004 637.9 77.0004 635.7 80.7004C633.5 84.4004 631.9 88.5004 630.8 92.9004C629.7 97.4004 629.2 101.7 629.2 105.9V154.2H597.5Z" fill="black"/>
<path d="M801.2 117.8L823 126.5C817.5 136.4 810.6 144 802.1 149.4C793.7 154.8 783.4 157.5 771.3 157.5C761.1 157.5 752.2 156.1 744.5 153.4C736.8 150.7 730.4 146.8 725.2 141.8C720 136.8 716.2 130.9 713.6 123.9C711 116.9 709.7 109.2 709.7 100.7C709.7 92.1998 711 84.4998 713.5 77.4998C716 70.4998 719.8 64.5998 724.8 59.6998C729.8 54.7998 736 50.9998 743.4 48.2998C750.8 45.5998 759.5 44.2998 769.4 44.2998C778.3 44.2998 786.3 45.5998 793.2 48.1998C800.2 50.7998 806 54.5998 810.8 59.4998C815.6 64.3998 819.3 70.2998 821.8 77.0998C824.3 83.9998 825.6 91.5998 825.6 100.1V106.8H739.5C739.7 111.4 740.6 115.6 742.3 119.2C744 122.9 746.2 126 749 128.5C751.8 131 755.1 133 759 134.3C762.9 135.6 767.1 136.3 771.7 136.3C778.2 136.3 783.9 134.8 788.9 131.8C793.9 128.8 797.7 124.1 800.3 117.6H801.2V117.8ZM795.5 90.3998C795.4 86.4998 794.7 82.7998 793.5 79.5998C792.3 76.2998 790.6 73.4998 788.4 71.1998C786.2 68.8998 783.4 67.0998 780.1 65.7998C776.8 64.4998 773 63.8998 768.6 63.8998C764.4 63.8998 760.6 64.5998 757.1 65.8998C753.7 67.1998 750.7 68.9998 748.2 71.3998C745.7 73.7998 743.7 76.5998 742.2 79.7998C740.7 83.0998 739.8 86.5998 739.6 90.4998H795.5V90.3998Z" fill="black"/>
<path d="M932.9 154.2L928.3 133.6C926.6 137.1 924.4 140.3 921.6 143.2C918.8 146.1 915.5 148.6 911.8 150.8C908.1 152.9 904 154.6 899.5 155.8C895 157 890.2 157.6 885.2 157.6C877.7 157.6 871 156.2 864.9 153.5C858.8 150.8 853.6 146.9 849.3 142C845 137.1 841.7 131.1 839.3 124.2C836.9 117.2 835.8 109.5 835.8 101C835.8 92.2002 837 84.3002 839.3 77.3002C841.7 70.3002 845 64.4002 849.3 59.5002C853.6 54.6002 858.8 50.9002 864.9 48.3002C871 45.7002 877.9 44.4002 885.4 44.4002C890.4 44.4002 895.1 45.0002 899.4 46.1002C903.7 47.2002 907.5 48.7002 910.8 50.6002C914.2 52.5002 917 54.6002 919.5 57.1002C921.9 59.6002 923.8 62.1002 925.2 64.8002V4.2002H956.9V154.2H932.9ZM925.2 101.1C925.2 95.2002 924.4 90.1002 922.9 85.8002C921.4 81.5002 919.3 78.0002 916.7 75.3002C914.1 72.5002 911.1 70.5002 907.6 69.2002C904.1 67.9002 900.5 67.3002 896.7 67.3002C892.6 67.3002 888.7 68.0002 885.3 69.3002C881.8 70.6002 878.9 72.6002 876.4 75.4002C873.9 78.1002 872 81.6002 870.6 85.8002C869.2 90.0002 868.5 95.1002 868.5 100.9C868.5 106.5 869.2 111.4 870.5 115.6C871.8 119.8 873.8 123.3 876.2 126.1C878.7 128.9 881.6 131.1 885.1 132.5C888.6 133.9 892.4 134.6 896.6 134.6C900.8 134.6 904.7 133.9 908.2 132.4C911.7 130.9 914.7 128.8 917.2 126C919.7 123.2 921.6 119.7 923 115.5C924.5 111.3 925.2 106.5 925.2 101.1Z" fill="black"/>
<path d="M180.4 44C176.5 34.3 170.8 26.2 163.5 19.7C156.1 13.2 147.1 8.3 136.5 5C125.9 1.7 113.9 0 100.6 0H42.2001C38.5001 0 35.6001 3 35.6001 6.6V150.9C35.6001 154.6 38.6001 157.5 42.2001 157.5H98.8001C112.2 157.5 124.3 156 135.1 152.9C145.9 149.8 155.1 145 162.7 138.5C170.3 132 176.1 123.7 180.2 113.7C184.3 103.7 186.3 91.7 186.3 77.7C186.3 64.9 184.3 53.7 180.4 44Z" fill="black"/>
<path d="M132.6 71.0999C130.6 68.8999 128.1 67.0999 125.8 65.0999C124.7 64.1999 123.7 63.1999 122.6 62.2999C121.8 61.6999 121.6 60.8999 121.9 59.8999C122.6 57.0999 123.3 54.2999 124 51.3999C124.7 48.5999 125.2 45.6999 124.6 42.7999C123.6 38.1999 119.9 34.9999 114.5 34.2999C112 33.9999 109.5 33.8999 107 33.6999C105.9 33.5999 104.8 33.4999 103.7 33.4999C101.9 33.4999 100.7 32.5999 100.1 30.8999C99.0001 27.8999 97.9001 24.9999 96.6001 21.9999C96.1001 20.6999 95.3001 19.4999 94.5001 18.2999C91.4001 13.9999 86.6001 12.4999 81.7001 14.4999C78.8001 15.6999 76.3001 17.5999 73.6001 19.0999C72.1001 19.9999 70.6001 20.8999 69.0001 21.6999C68.5001 21.9999 67.6001 21.9999 67.0001 21.6999C65.5001 20.9999 64.2001 20.0999 62.7001 19.2999C59.7001 17.5999 56.9001 15.5999 53.7001 14.2999C49.1001 12.4999 44.5001 14.0999 41.5001 18.0999C39.4001 20.8999 38.3001 24.1999 37.2001 27.3999C37.0001 28.0999 36.7001 28.6999 36.5001 29.3999C35.8001 32.4999 33.7001 33.4999 30.7001 33.5999C27.7001 33.5999 24.6001 33.8999 21.6001 34.0999C20.4001 34.1999 19.3001 34.5999 18.1001 34.9999C13.2001 36.7999 10.4001 41.2999 11.1001 46.5999C11.5001 49.4999 12.3001 52.2999 13.0001 55.0999C14.7001 61.7999 15.0001 60.8999 9.8001 65.0999C8.6001 65.9999 7.4001 66.8999 6.3001 67.8999C3.4001 70.2999 1.0001 73.1999 0.100098 76.9999C0.100098 78.0999 0.100098 79.0999 0.100098 80.1999C1.4001 85.7999 5.7001 88.9999 9.9001 92.1999C11.1001 93.0999 12.2001 94.1999 13.3001 95.0999C14.1001 95.6999 14.3001 96.4999 14.0001 97.4999C13.3001 100.3 12.6001 103.1 11.9001 106C11.2001 108.8 10.7001 111.7 11.3001 114.6C12.3001 119.2 16.0001 122.4 21.4001 123.1C23.9001 123.4 26.4001 123.5 28.9001 123.7C30.0001 123.8 31.0001 123.9 32.1001 123.9C34.2001 123.9 35.3001 124.9 36.0001 126.8C37.0001 129.7 38.1001 132.5 39.3001 135.3C43.1001 143.8 49.7001 146 57.7001 141.3C59.9001 140 62.1001 138.5 64.2001 137C66.7001 135.1 69.1001 135.2 71.7001 137C74.0001 138.7 76.4001 140.3 78.9001 141.7C80.6001 142.6 82.5001 143.3 84.3001 143.6C88.8001 144.3 92.4001 142.4 94.7001 138.7C96.3001 136 97.4001 132.9 98.7001 130C99.0001 129.4 99.2001 128.8 99.4001 128.1C100.2 124.8 102.4 123.8 105.5 123.8C108.4 123.8 111.3 123.7 114.2 123.3C122.2 122.2 126.1 116.6 124.5 108.7C124 106 123 103.4 122.4 100.8C121.3 95.7999 121 96.6999 124.8 93.2999C126.7 91.5999 128.7 90.1999 130.7 88.5999C131.4 87.9999 132 87.2999 132.6 86.5999C136.8 81.6999 136.9 75.7999 132.6 71.0999Z" fill="url(#paint0_linear_503_5064)"/>
<path d="M56.7001 88.6001C69.5001 75.8001 81.8001 63.5001 94.2001 51.1001C96.7001 48.6001 99.6001 47.4001 103.1 48.4001C109.1 50.0001 111.6 57.3001 107.8 62.2001C107.3 62.8001 106.8 63.3001 106.3 63.9001C92.3001 77.9001 78.2001 92.0001 64.2001 106C59.4001 110.8 54.7001 110.8 49.9001 106.1C43.0001 99.2001 36.0001 92.3001 29.1001 85.3001C25.7001 81.9001 25.3001 77.1001 28.0001 73.6001C31.2001 69.3001 37.3001 68.9001 41.3001 72.8001C46.0001 77.4001 50.6001 82.1001 55.3001 86.7001C55.7001 87.1001 56.1001 87.8001 56.7001 88.6001Z" fill="black"/>
<defs>
<linearGradient id="paint0_linear_503_5064" x1="9.76463e-05" y1="78.7698" x2="135.814" y2="78.7698" gradientUnits="userSpaceOnUse">
<stop stop-color="#78FFD6"/>
<stop offset="1" stop-color="#A8FF78"/>
</linearGradient>
</defs>
</svg>
